<svg width="36" height="24" viewBox="0 0 36 24" fill="none" xmlns="http://www.w3.org/2000/svg">
<path d="M32.5467 2.95874C30.9126 2.95874 29.5878 4.28347 29.5878 5.91756C29.5885 6.22774 29.6384 6.53585 29.7358 6.83037L27.3362 8.35564C25.7562 9.36228 23.6732 9.02865 22.4867 7.57896L20.1344 4.70156C20.5088 4.19762 20.7111 3.58661 20.7114 2.95881C20.7114 1.32473 19.3867 0 17.7526 0C16.1185 0 14.7938 1.32473 14.7938 2.95881C14.7941 3.58661 14.9964 4.19762 15.3707 4.70156L13.0185 7.57896C11.8322 9.02782 9.75014 9.36138 8.17056 8.35564L5.76964 6.83037C5.86707 6.53585 5.917 6.22774 5.91756 5.91756C5.91783 4.28347 4.59338 2.95854 2.95923 2.95826C1.32521 2.95798 0.000277436 4.2825 4.92241e-08 5.91658C-0.000277337 7.45053 1.17182 8.73032 2.69987 8.86451L4.44852 19.3534C4.50781 19.71 4.81626 19.9716 5.17784 19.9718H30.3276C30.6891 19.9716 30.9976 19.71 31.0569 19.3534L32.8055 8.86451C34.4331 8.71853 35.6342 7.28077 35.4882 5.65321C35.3516 4.12973 34.0762 2.96159 32.5467 2.95874Z" fill="#FFC107"/>
<path d="M17.7526 22.9306C24.6975 22.9306 30.3274 21.2747 30.3274 19.2321C30.3274 17.1895 24.6975 15.5336 17.7526 15.5336C10.8077 15.5336 5.17773 17.1895 5.17773 19.2321C5.17773 21.2747 10.8077 22.9306 17.7526 22.9306Z" fill="#FFA000"/>
<path d="M17.753 23.6703C11.1357 23.6703 4.43848 22.1465 4.43848 19.2321C4.43848 16.3177 11.1357 14.7939 17.753 14.7939C24.3704 14.7939 31.0676 16.3177 31.0676 19.2321C31.0676 22.1465 24.3704 23.6703 17.753 23.6703ZM17.753 16.2733C9.98323 16.2733 5.91785 18.1965 5.91785 19.2321C5.91785 20.2677 9.98323 22.1909 17.753 22.1909C25.5228 22.1909 29.5882 20.2677 29.5882 19.2321C29.5882 18.1965 25.5228 16.2733 17.753 16.2733Z" fill="#FFD54F"/>
</svg>
