<svg width="63" height="63" viewBox="0 0 63 63" fill="none" xmlns="http://www.w3.org/2000/svg">
<path d="M31.3211 9.16139L9.10327 31.3211M31.3211 9.16139L53.5389 31.3211M31.3211 9.16139V26.3211C31.3211 29.0825 29.0825 31.3211 26.3211 31.3211H9.10327M9.10327 31.3211L31.3211 53.4807M53.5389 31.3211H36.3662C33.61 31.3211 31.3735 33.5516 31.3663 36.3079L31.3211 53.4148V53.4807M53.5389 31.3211L31.3211 53.4807" stroke="#E1E1E1" stroke-width="0.5"/>
<path d="M42.4009 12.1302L12.0798 20.2121M42.4009 12.1302L50.5623 42.4299M42.4009 12.1302L33.821 26.9909C32.4403 29.3824 29.3824 30.2017 26.9909 28.821L12.0798 20.2121M12.0798 20.2121L20.2412 50.5119M50.5623 42.4299L35.6903 33.8436C33.3033 32.4655 30.2512 33.2789 28.8667 35.6623L20.2742 50.4547L20.2412 50.5119M50.5623 42.4299L20.2412 50.5119" stroke="#4767F9" stroke-width="0.6"/>
<path d="M50.6054 20.2412L20.3056 12.0798M50.6054 20.2412L42.5235 50.5623M50.6054 20.2412L35.7447 28.821C33.3532 30.2018 30.2952 29.3824 28.9145 26.9909L20.3056 12.0798M20.3056 12.0798L12.2237 42.4009M42.5235 50.5623L33.9371 35.6903C32.559 33.3033 29.509 32.4817 27.1184 33.8535L12.2808 42.3679L12.2237 42.4009M42.5235 50.5623L12.2237 42.4009" stroke="#9161FF" stroke-width="0.8"/>
</svg>
